<svg xmlns="http://www.w3.org/2000/svg" width="52.026" height="37.01" viewBox="0 0 52.026 37.01">
  <g id="quote" transform="translate(0.5 0.5)">
    <path id="Path_7615" data-name="Path 7615" d="M15.422,17.9a28.817,28.817,0,0,1,5.286-8.3,2.512,2.512,0,0,0-1.882-4.184,2.1,2.1,0,0,0-.718.1C13.079,6.979,1.327,12.167,1,28.8A12.279,12.279,0,0,0,11.744,41.354a12.176,12.176,0,0,0,9.305-3.01A11.94,11.94,0,0,0,25,29.482,11.807,11.807,0,0,0,15.422,17.9Z" transform="translate(26.025 -5.414)" fill="rgba(22,91,166,0.1)" stroke="rgba(22,91,166,0.45)" stroke-width="1"/>
    <path id="Path_7616" data-name="Path 7616" d="M27.729,41.354a12.159,12.159,0,0,0,9.288-3.01,11.939,11.939,0,0,0,3.951-8.862A11.807,11.807,0,0,0,31.39,17.9a28.818,28.818,0,0,1,5.286-8.3,2.513,2.513,0,0,0-1.882-4.184,2.1,2.1,0,0,0-.718.1C29.046,6.979,17.295,12.167,16.97,28.8v.238A12.268,12.268,0,0,0,27.729,41.354Z" transform="translate(-16.97 -5.414)" fill="rgba(22,91,166,0.1)" stroke="rgba(22,91,166,0.45)" stroke-width="1"/>
  </g>
</svg>
